<svg xmlns="http://www.w3.org/2000/svg" viewBox="0 0 24 24"><path fill="#33de84" d="M18.312 8.135l-1.81-1.81h5v5l-1.79-1.79-7.21 7.15-3.47-3.02-3.78 3.66h-2.75l6.47-6.34 3.53 2.98"/><g transform="matrix(.0245 0 0 .0245 .038572 14.809967)"><path fill="#073042" d="M764.821 32.036c-.308-.54-.539-1.157-.655-1.813.116.617.347 1.235.655 1.813zM764.78-3.957c-.309.733-.501 1.505-.578 2.354.077-.849.269-1.621.578-2.354zM765.631 33.04c.308.308.655.578 1.04.771l26.278 14.852-26.278-14.852c-.385-.193-.732-.463-1.04-.771z"/><path fill="#073042" d="M796.994 67.45h-.192c-1.927 0-3.853-.463-5.587-1.427L751.99 43.879c-2.312-1.311-3.737-3.742-3.737-6.365V-7.545c0-1.929.346-3.78 1.155-5.401l-30.67-17.244c-1.272 2.7-1.927 5.748-1.888 8.95v74.417c.038 4.359 2.389 8.371 6.203 10.531l64.694 36.572c2.851 1.62 6.049 2.392 9.209 2.392v-.039c.077-4.668.038-23.378.038-35.183z"/><path fill="#3DDC84" d="M827.781-4.767c-.078-.115-.155-.231-.232-.347-.192-.27-.385-.501-.578-.771.193.231.386.501.578.771.077.077.154.193.232.347zM765.127-4.728c.154-.271.347-.541.54-.811-.193.27-.386.54-.54.811zM795.492-22.821c.193 0 .347-.039.54-.039-.193.039-.385.039-.54.039z"/><path fill="#3DDC84" d="M749.37-12.984c.847-1.775 2.158-3.241 3.93-4.321l36.913-21.797c3.429-2.044 7.667-2.083 11.174-.115l37.298 21.102c1.657.926 3.121 2.276 4.2 3.858l30.169-18.016c-1.772-2.585-4.161-4.784-6.897-6.327l-61.611-34.836c-5.741-3.24-12.754-3.163-18.418.193l-60.917 35.955c-2.929 1.736-5.086 4.205-6.473 7.098l30.632 17.206z"/><path fill="#3DDC84" d="M793.952-22.513c.077-.039.154-.039.231-.077-.077.038-.154.038-.231.077zM764.898-4.305c.077-.154.154-.308.231-.424-.077.154-.154.27-.231.424-.039.116-.077.232-.116.348.039-.116.077-.232.116-.348z"/><path fill="#4285F4" d="M873.017-32.273l-30.17 18.016c1.156 1.697 1.85 3.703 1.888 5.748v42.898c.039 4.012-2.042 7.716-5.471 9.722l-36.913 21.796c-1.657.965-3.506 1.505-5.356 1.544.039 11.766.039 30.476-.038 35.144v.038c3.198-.038 6.357-.887 9.209-2.546l60.917-35.993c5.664-3.356 9.132-9.451 9.055-16.048v-70.79c-.038-3.434-1.194-6.713-3.121-9.529z"/><path fill="#4285F4" d="M828.475 29.798c-.038.077-.038.155-.077.232.039-.077.077-.155.077-.232zM828.089-4.266c-.077-.193-.193-.347-.308-.54.115.193.231.386.308.54zM800.425 48.625l24.737-14.621c.154-.077.269-.193.423-.27-.154.077-.269.193-.423.27l-24.737 14.621zM828.166 30.686c-.077.193-.192.386-.269.579.077-.232.154-.425.269-.579zM826.355 33.116c.347-.309.694-.695 1.002-1.08-.308.385-.655.771-1.002 1.08zM827.858 31.226c-.155.27-.347.54-.54.81.193-.27.385-.54.54-.81z"/><path fill="#D7EFFE" d="M764.783-3.957c-.309.733-.501 1.504-.578 2.353-.039.309-.039.617-.039.964v30.207c0 .231 0 .424.039.656.077.655.308 1.273.655 1.813.231.386.501.694.77 1.003.309.308.655.578 1.041.771l26.278 14.853c1.156.656 2.466.964 3.737.964h.27c1.194-.038 2.389-.386 3.468-1.041l24.737-14.621c.154-.077.269-.193.424-.27.269-.193.539-.386.77-.618.347-.308.694-.694 1.002-1.08.193-.27.385-.54.539-.81.116-.193.193-.386.27-.579.077-.192.193-.424.27-.655.038-.078.038-.155.077-.232.231-.733.347-1.504.347-2.315v-28.74c0-.54-.077-1.042-.193-1.543-.077-.347-.193-.656-.308-.965l-.231-.462c-.078-.193-.193-.348-.309-.541-.077-.115-.154-.231-.231-.347-.193-.27-.385-.501-.578-.771-.616-.733-1.387-1.351-2.235-1.813l-25.006-14.159c-.424-.231-.886-.462-1.349-.617-.616-.193-1.271-.308-1.926-.347h-.501c-.193 0-.347 0-.54.039-.424.038-.886.115-1.31.231-.077.039-.154.039-.231.077-.578.155-1.117.425-1.657.733L767.518-7.198c-.732.425-1.348 1.003-1.849 1.659-.193.27-.386.54-.54.81-.077.154-.154.27-.231.425-.038.115-.077.231-.115.347z"/><path fill="#073042" d="M796.954 49.628h-.27c-1.271 0-2.581-.309-3.737-.965l-26.278-14.852c-.386-.232-.733-.463-1.041-.772-.308-.308-.578-.655-.77-1.003-.309-.54-.54-1.157-.655-1.813-.039-.231-.039-.424-.039-.656V-.639c0-.309 0-.656.039-.964.077-.811.269-1.621.577-2.354l-7.089-4.359-8.323-4.668c-.771 1.62-1.156 3.472-1.156 5.401v45.059c.039 2.623 1.464 5.053 3.738 6.365l39.186 22.182c1.734.965 3.66 1.466 5.587 1.428h.192c0-5.748-.038-9.838-.038-9.838l.077-7.985z"/><path fill="#041619" d="M796.954 49.628h-.27c-1.271 0-2.581-.309-3.737-.965l-26.278-14.852c-.386-.232-.733-.463-1.041-.772-.308-.308-.578-.655-.77-1.003-.309-.54-.54-1.157-.655-1.813-.039-.231-.039-.424-.039-.656V-.639c0-.309 0-.656.039-.964.077-.811.269-1.621.577-2.354l-7.089-4.359-8.323-4.668c-.771 1.62-1.156 3.472-1.156 5.401v45.059c.039 2.623 1.464 5.053 3.738 6.365l39.186 22.182c1.734.965 3.66 1.466 5.587 1.428h.192c0-5.748-.038-9.838-.038-9.838l.077-7.985z"/><path fill="#3DDC84" d="M838.646-18.115l-37.298-21.103c-3.468-1.967-7.707-1.928-11.174.116l-36.913 21.797c-1.772 1.041-3.083 2.546-3.93 4.321l8.361 4.667 7.09 4.36c.038-.116.077-.232.115-.347.077-.155.154-.309.231-.425.155-.27.347-.54.54-.81.501-.656 1.117-1.196 1.849-1.659l24.737-14.621c.54-.308 1.079-.54 1.657-.733.077-.038.154-.038.231-.077.424-.116.848-.193 1.31-.231.193 0 .347-.039.54-.039h.501c.655.039 1.271.154 1.926.347.463.155.925.347 1.349.617l25.007 14.159c.847.462 1.579 1.08 2.234 1.813.193.231.386.501.578.771.077.116.154.232.231.347l6.397-4.282 8.669-5.208c-1.117-1.504-2.543-2.854-4.238-3.78z"/><path fill="#37BF6E" d="M838.646-18.115l-37.298-21.103c-3.468-1.967-7.707-1.928-11.174.116l-36.913 21.797c-1.772 1.041-3.083 2.546-3.93 4.321l8.361 4.667 7.09 4.36c.038-.116.077-.232.115-.347.077-.155.154-.309.231-.425.155-.27.347-.54.54-.81.501-.656 1.117-1.196 1.849-1.659l24.737-14.621c.54-.308 1.079-.54 1.657-.733.077-.038.154-.038.231-.077.424-.116.848-.193 1.31-.231.193 0 .347-.039.54-.039h.501c.655.039 1.271.154 1.926.347.463.155.925.347 1.349.617l25.007 14.159c.847.462 1.579 1.08 2.234 1.813.193.231.386.501.578.771.077.116.154.232.231.347l6.397-4.282 8.669-5.208c-1.117-1.504-2.543-2.854-4.238-3.78z"/><path fill="#4285F4" d="M827.783-4.767c.115.193.192.347.308.54.077.154.154.308.231.463.116.308.231.656.308.964.116.502.193 1.003.193 1.543v28.741c0 .81-.116 1.581-.347 2.314-.038.078-.038.155-.077.232-.077.231-.154.424-.27.656-.077.193-.192.386-.269.578-.154.27-.347.54-.54.811-.308.385-.616.733-1.002 1.08-.231.231-.501.424-.77.617-.154.077-.27.193-.424.27l-24.737 14.621c-1.079.617-2.273.964-3.468 1.042v7.985s0 4.089.039 9.837c1.849-.038 3.699-.54 5.356-1.543l36.912-21.796c3.43-2.045 5.51-5.748 5.472-9.722V-8.432c-.039-2.083-.732-4.051-1.888-5.748l-8.67 5.208-6.357 4.205z"/><path fill="#3870B2" d="M827.783-4.767c.115.193.192.347.308.54.077.154.154.308.231.463.116.308.231.656.308.964.116.502.193 1.003.193 1.543v28.741c0 .81-.116 1.581-.347 2.314-.038.078-.038.155-.077.232-.077.231-.154.424-.27.656-.077.193-.192.386-.269.578-.154.27-.347.54-.54.811-.308.385-.616.733-1.002 1.08-.231.231-.501.424-.77.617-.154.077-.27.193-.424.27l-24.737 14.621c-1.079.617-2.273.964-3.468 1.042v7.985s0 4.089.039 9.837c1.849-.038 3.699-.54 5.356-1.543l36.912-21.796c3.43-2.045 5.51-5.748 5.472-9.722V-8.432c-.039-2.083-.732-4.051-1.888-5.748l-8.67 5.208-6.357 4.205z"/><path fill="#D7EFFE" d="M793.953-22.513c-.578.154-1.117.424-1.656.733L767.56-7.159l24.737-14.621c.5-.309 1.078-.579 1.656-.733z"/><path d="M793.953-22.513c-.578.154-1.117.424-1.656.733L767.56-7.159l24.737-14.621c.5-.309 1.078-.579 1.656-.733z" opacity=".1"/><path fill="#D7EFFE" d="M826.971-5.886c-.617-.733-1.388-1.35-2.235-1.813l-25.007-14.158 25.007 14.158c.847.463 1.618 1.08 2.235 1.813z"/><path d="M826.971-5.886c-.617-.733-1.388-1.35-2.235-1.813l-25.007-14.158 25.007 14.158c.847.463 1.618 1.08 2.235 1.813z" opacity=".1"/><path fill="#D7EFFE" d="M794.181-22.59c.423-.116.847-.193 1.31-.232-.463.039-.887.116-1.31.232z"/><path d="M794.181-22.59c.423-.116.847-.193 1.31-.232-.463.039-.887.116-1.31.232z" opacity=".1"/><path fill="#D7EFFE" d="M796.492-22.822c.655.039 1.272.155 1.927.347-.655-.192-1.272-.308-1.927-.347z"/><path d="M796.492-22.822c.655.039 1.272.155 1.927.347-.655-.192-1.272-.308-1.927-.347z" opacity=".1"/><path fill="#D7EFFE" d="M828.395 30.03c-.077.231-.154.424-.269.656.115-.232.192-.425.269-.656z"/><path d="M828.395 30.03c-.077.231-.154.424-.269.656.115-.232.192-.425.269-.656z" opacity=".1"/><path fill="#D7EFFE" d="M828.32-3.802c.115.308.231.656.308.964-.077-.308-.193-.617-.308-.964z"/><path d="M828.32-3.802c.115.308.231.656.308.964-.077-.308-.193-.617-.308-.964z" opacity=".1"/><path fill="#D7EFFE" d="M828.472 29.799c.232-.733.347-1.505.347-2.315v-28.74 28.74c0 .81-.115 1.582-.347 2.315z"/><path d="M828.472 29.799c.232-.733.347-1.505.347-2.315v-28.74 28.74c0 .81-.115 1.582-.347 2.315z" opacity=".1"/></g><g transform="translate(-5.740475 -4.327865) scale(.08784)"><g fill="#33DECB" fill-rule="evenodd" transform="matrix(.18456 0 0 .18456 38.521885 306.750214)"><circle cx="540.136" cy="-1064.07" r="60.87"/><circle cx="358.272" cy="-656.969" r="31.141"/><circle cx="666.642" cy="-313.861" r="24.949"/><circle cx="966.211" cy="-919.77" r="24.949"/><circle cx="1119.803" cy="-256.377" r="60.872"/><circle cx="1360.509" cy="-680.274" r="31.142"/></g></g></svg>